<svg width="200" height="200" viewBox="0 0 200 200" xmlns="http://www.w3.org/2000/svg" fill="none" stroke="white" stroke-width="8" stroke-linecap="round" stroke-linejoin="round">
  <!-- Representação de um cérebro estilizado para simbolizar IA -->
  <path d="M50 80 Q30 50 50 30 Q70 10 100 30 Q130 10 150 30 Q170 50 150 80"/>
  <path d="M50 120 Q30 150 50 170 Q70 190 100 170 Q130 190 150 170 Q170 150 150 120"/>
  <line x1="50" y1="80" x2="50" y2="120"/>
  <line x1="100" y1="30" x2="100" y2="170"/>
  <line x1="150" y1="80" x2="150" y2="120"/>
  
  <!-- Ícone de documento para simbolizar geração de texto -->
  <rect x="70" y="60" width="60" height="80" rx="8" stroke="white" fill="none"/>
  <line x1="80" y1="80" x2="120" y2="80"/>
  <line x1="80" y1="100" x2="120" y2="100"/>
  <line x1="80" y1="120" x2="110" y2="120"/>
</svg>